# xmcd
#
# Track frame offsets:
#	150
#	15136
#	30090
#	41425
#	56142
#	70931
#	96182
#	110205
#	125517
#	138150
#	159545
#	172452
#
# Disc length: 2467 seconds
# Revision: 0
# Processed by: cddbd v1.5.2PL0 Copyright (c) Steve Scherf et al.
# Submitted via: dBpowerAMP V12.0
#
DISCID=9e09a10c
DTITLE=Amanda Cook - Deep Water
DYEAR=2017
DGENRE=Bluegrass
TTITLE0=Midnight 402
TTITLE1=No Rhyme Or Reason
TTITLE2=Banks Of Big Bend
TTITLE3=Til Im Too Old
TTITLE4=Caleb Meyer
TTITLE5=Magnolia Wind
TTITLE6=Liars Moon
TTITLE7=Deep Water
TTITLE8=Cry Cry Darlin
TTITLE9=Come To Jesus
TTITLE10=Big River
TTITLE11=Leaving Louisville
EXTD=
EXTT0=
EXTT1=
EXTT2=
EXTT3=
EXTT4=
EXTT5=
EXTT6=
EXTT7=
EXTT8=
EXTT9=
EXTT10=
EXTT11=
PLAYORDER=
